<svg xmlns="http://www.w3.org/2000/svg" version="1.1" xmlns:xlink="http://www.w3.org/1999/xlink" xmlns:svgjs="http://svgjs.dev/svgjs" width="132" height="130"><svg width="132" height="130" viewBox="0 0 132 130" fill="none" xmlns="http://www.w3.org/2000/svg">
<path d="M132 109.504H0V111.393H132V109.504Z" fill="#A08C6E"></path>
<path d="M48.9894 129.273H47.9452L47.827 129.995H46.6074L47.778 123.672H49.1525L50.3231 129.995H49.1036L48.9853 129.273H48.9894ZM48.8099 128.102L48.4877 126.085L48.4632 125.858L48.4388 126.085L48.1165 128.102H48.8018H48.8099Z" fill="#A08C6E"></path>
<path d="M56.9023 127.648H55.7766V129.995H54.606V123.672H56.9023C57.3958 123.672 57.7303 124.059 57.7303 124.631V126.69C57.7303 127.261 57.404 127.648 56.9023 127.648ZM56.5352 124.938H55.7766V126.383H56.5352C56.5352 126.383 56.5597 126.373 56.5597 126.354V124.961C56.5597 124.961 56.5515 124.933 56.5352 124.933V124.938Z" fill="#A08C6E"></path>
<path d="M64.3661 130L63.6401 127.875L63.322 128.635V130H62.1514V123.676H63.322V126.278L64.3539 123.676H65.5734L64.4028 126.496L65.6672 130H64.3702H64.3661Z" fill="#A08C6E"></path>
<path d="M75.2402 130V123.676H76.4108V128.734H77.973V130H75.2402Z" fill="#A08C6E"></path>
<path d="M84.2216 130V127.407H83.4426V130H82.272V123.676H83.4426V126.141H84.2216V123.676H85.3922V130H84.2216Z" fill="#A08C6E"></path>
<path d="M8.92016 58.7472L6.00386 50.2137L4.71906 53.2644V58.7472H0.012207V33.3262H4.71906V43.7864L8.85897 33.3262H13.7534L9.0466 44.6554L14.1287 58.7472H8.92016Z" fill="#A08C6E"></path>
<path d="M23.2734 58.7472V33.3262H27.9803V53.6658H34.2534V58.7519H23.2734V58.7472Z" fill="#A08C6E"></path>
<path d="M55.7606 58.8229H49.8627C47.856 58.8229 46.5386 57.2598 46.5386 54.9741V33.3311H51.2454V53.5621C51.2454 53.6329 51.2781 53.6707 51.3392 53.6707H54.2882C54.3493 53.6707 54.382 53.6329 54.382 53.5621V33.3311H59.0888V54.9741C59.0888 57.2645 57.7388 58.8229 55.7647 58.8229H55.7606Z" fill="#A08C6E"></path>
<path d="M80.5877 58.7472H71.3657V33.3262H80.5877C82.5618 33.3262 83.9119 34.8893 83.9119 37.175V42.7664C83.9119 44.254 83.3164 45.4157 82.3457 45.7085V45.7793C83.3164 46.0721 83.9119 47.2669 83.9119 48.7592V54.8984C83.9119 57.1841 82.5618 58.7472 80.5877 58.7472ZM79.2091 43.3142V38.5209C79.2091 38.45 79.1765 38.4123 79.1153 38.4123H76.0726V43.4228H79.1153C79.1765 43.4228 79.2091 43.385 79.2091 43.3142ZM79.2091 53.5572V48.2539C79.2091 48.1831 79.1765 48.1453 79.1153 48.1453H76.0726V53.6658H79.1153C79.1765 53.6658 79.2091 53.628 79.2091 53.5572Z" fill="#A08C6E"></path>
<path d="M0.012207 96.8717V71.4507H4.71906V91.7903H10.9922V96.8764H0.012207V96.8717Z" fill="#A08C6E"></path>
<path d="M23.2734 96.8717V71.4507H34.2534V76.5368H27.9803V81.5473H32.6872V86.2698H27.9803V91.7903H34.2534V96.8764H23.2734V96.8717Z" fill="#A08C6E"></path>
<path d="M55.7562 96.9429H49.8584C47.8842 96.9429 46.5342 95.3798 46.5342 93.0941V75.2243C46.5342 72.9339 47.8842 71.3755 49.8584 71.3755H55.7562C57.7303 71.3755 59.0804 72.9386 59.0804 75.2243V79.6162H54.3735V76.6363C54.3735 76.5655 54.3409 76.5277 54.2797 76.5277H51.3308C51.2696 76.5277 51.237 76.5655 51.237 76.6363V91.6726C51.237 91.7435 51.2696 91.7813 51.3308 91.7813H54.2797C54.3409 91.7813 54.3735 91.7435 54.3735 91.6726V87.4224H52.3994V82.3363H59.0804V93.0847C59.0804 95.3703 57.7303 96.9335 55.7562 96.9335V96.9429Z" fill="#A08C6E"></path>
<path d="M71.3657 96.8717V71.4507H82.3457V76.5368H76.0726V81.5473H80.7794V86.2698H76.0726V91.7903H82.3457V96.8764H71.3657V96.8717Z" fill="#A08C6E"></path>
<path d="M102.845 96.872L99.4271 84.1969L99.3333 83.6539V96.872H94.6265V71.451H99.5821L102.372 82.4166L102.466 82.9974V71.4463H107.173V96.8673H102.845V96.872Z" fill="#A08C6E"></path>
<path d="M128.676 96.8717H119.454V71.4507H128.676C130.65 71.4507 132 73.0138 132 75.2995V93.0229C132 95.3086 130.65 96.8717 128.676 96.8717ZM127.297 91.677V76.6407C127.297 76.5698 127.264 76.5321 127.203 76.5321H124.16V91.7856H127.203C127.264 91.7856 127.297 91.7478 127.297 91.677Z" fill="#A08C6E"></path>
<path d="M17.1307 8.16978L11.6529 7.7542L9.58908 1.75195L7.52932 7.7542L2.05566 8.16978L6.25268 12.2925L4.87407 18.5545L9.58908 15.1024L14.3041 18.5545L12.9296 12.2925L17.1307 8.16978Z" fill="#A08C6E"></path>
<path d="M49.4993 8.16978L44.0216 7.7542L41.9618 1.75195L39.898 7.7542L34.4243 8.16978L38.6213 12.2925L37.2468 18.5545L41.9618 15.1024L46.6727 18.5545L45.2982 12.2925L49.4993 8.16978Z" fill="#A08C6E"></path>
<path d="M81.8683 8.16978L76.3905 7.7542L74.3308 1.75195L72.2669 7.7542L66.7974 8.16978L70.9903 12.2925L69.6158 18.5545L74.3308 15.1024L79.0458 18.5545L77.6672 12.2925L81.8683 8.16978Z" fill="#A08C6E"></path>
<path d="M130.866 30.8755L130.838 30.9463C130.838 30.9463 130.777 31.0833 130.679 31.2958C130.744 31.1541 130.805 31.0124 130.866 30.8755Z" fill="#A08C6E"></path>
<path d="M109.11 5.1333H108.041L107.915 6.11085H108.984L109.11 5.1333Z" fill="#A08C6E"></path>
<path d="M104.966 10.7578H106.076L106.687 6.11085H107.597L107.728 5.1333H104.701L104.575 6.11085H105.578L104.966 10.7578Z" fill="#A08C6E"></path>
<path d="M108.38 10.758L108.935 6.47949H107.866L107.308 10.758H108.38Z" fill="#A08C6E"></path>
<path d="M109.926 12.1605L110.109 10.7343C110.109 10.7343 110.354 10.8288 110.729 10.8288C111.9 10.8288 112.642 10.0354 112.83 8.59033C113.005 7.25859 112.426 6.37549 111.125 6.37549C110.55 6.37549 109.938 6.48883 109.567 6.66828L108.849 12.1558H109.922L109.926 12.1605ZM110.534 7.45221C110.534 7.45221 110.717 7.36721 110.99 7.36721C111.504 7.36721 111.876 7.71667 111.757 8.62811C111.655 9.40731 111.264 9.87011 110.705 9.87011C110.407 9.87011 110.236 9.77094 110.236 9.77094L110.538 7.45693L110.534 7.45221Z" fill="#A08C6E"></path>
<path d="M114.09 9.87956C113.544 9.87956 113.018 9.72844 113.018 9.72844L112.842 10.6777C112.842 10.6777 113.405 10.8571 114.107 10.8571C115.008 10.8571 115.612 10.4604 115.714 9.69538C115.787 9.13341 115.616 8.70838 114.816 8.18891C114.417 7.92918 114.213 7.83001 114.241 7.6175C114.27 7.3861 114.592 7.35303 114.772 7.35303C115.228 7.35303 115.755 7.48527 115.755 7.48527L115.897 6.52188C115.897 6.52188 115.424 6.37549 114.731 6.37549C113.874 6.37549 113.271 6.77218 113.177 7.49944C113.103 8.05669 113.283 8.52421 114.058 9.02479C114.445 9.27508 114.665 9.40731 114.633 9.62927C114.608 9.78511 114.441 9.87956 114.082 9.87956H114.09Z" fill="#A08C6E"></path>
<path d="M116.766 12.1605L116.949 10.7343C116.949 10.7343 117.19 10.8288 117.569 10.8288C118.74 10.8288 119.482 10.0354 119.67 8.59033C119.845 7.25859 119.266 6.37549 117.965 6.37549C117.39 6.37549 116.778 6.48883 116.407 6.66828L115.689 12.1558H116.762L116.766 12.1605ZM117.373 7.45221C117.373 7.45221 117.557 7.36721 117.83 7.36721C117.843 7.36721 117.855 7.36721 117.867 7.36721C117.883 7.36721 117.896 7.36721 117.912 7.36721C118.426 7.36721 118.797 7.71667 118.679 8.62811C118.577 9.40731 118.185 9.87011 117.626 9.87011C117.61 9.87011 117.598 9.87011 117.581 9.87011C117.569 9.87011 117.557 9.87011 117.545 9.87011C117.247 9.87011 117.076 9.77094 117.076 9.77094L117.378 7.45693L117.373 7.45221Z" fill="#A08C6E"></path>
<path d="M117.578 9.86537C117.308 9.85592 117.153 9.76619 117.153 9.76619L117.455 7.45219C117.455 7.45219 117.618 7.37663 117.867 7.36719C117.855 7.36719 117.843 7.36719 117.83 7.36719C117.557 7.36719 117.374 7.45219 117.374 7.45219L117.072 9.76619C117.072 9.76619 117.243 9.86537 117.541 9.86537C117.553 9.86537 117.565 9.86537 117.578 9.86537Z" fill="#A08C6E"></path>
<path d="M121.448 10.8571C122.672 10.8571 123.365 10.0968 123.557 8.60449C123.692 7.56083 123.263 6.37549 121.999 6.37549C120.734 6.37549 120.082 7.13581 119.89 8.62811C119.756 9.67177 120.151 10.8571 121.448 10.8571ZM120.967 8.59977C121.102 7.58444 121.538 7.36721 121.881 7.36721C122.321 7.36721 122.598 7.76861 122.484 8.63755C122.35 9.65287 121.913 9.87011 121.571 9.87011C121.134 9.87011 120.853 9.46871 120.967 8.59977Z" fill="#A08C6E"></path>
<path d="M125.185 7.46162C125.185 7.46162 125.495 7.31522 126.053 7.39078L126.184 6.39907C125.723 6.35184 124.928 6.38017 124.206 6.76269L123.684 10.7626H124.756L125.189 7.46162H125.185Z" fill="#A08C6E"></path>
<path d="M126.983 10.8331C127.244 10.8331 127.595 10.7812 127.713 10.7387L127.848 9.70446C127.758 9.72335 127.587 9.73279 127.526 9.73279C127.187 9.73279 127.069 9.54862 127.106 9.2511L127.346 7.40462H128.146L128.268 6.47902H127.469L127.636 5.18506L126.506 5.63842L125.996 9.5439C125.902 10.2617 126.176 10.8331 126.983 10.8331Z" fill="#A08C6E"></path>
<path d="M104.305 4.0708L100.528 6.68232L98.0566 4.74612L99.8921 11.5795L104.305 4.0708Z" fill="#A08C6E"></path>
<path d="M110.97 54.5305H115.755V52.5612H112.806V50.2094H115.494V48.2354H112.806V45.8837H115.755V43.9097H110.97V54.5305Z" fill="#A08C6E"></path>
<path d="M118.642 43.9097H116.807V54.5305H121.591V52.5612H118.642V43.9097Z" fill="#A08C6E"></path>
<path d="M126.18 48.2354H124.344V43.9097H122.509V54.5305H124.344V50.2094H126.18V54.5305H128.015V43.9097H126.18V48.2354Z" fill="#A08C6E"></path>
<path d="M94.4961 0V58.5585H131.878V0H94.4961ZM95.5035 16.7175H107.989L107.691 16.8403C107.691 16.8403 107.658 16.8686 107.646 16.8875C107.385 17.1473 107.238 17.3739 107.156 17.6998C107.103 17.9029 107.079 18.1437 107.071 18.4507C107.05 18.5262 106.981 18.5168 106.92 18.5687C106.859 18.6207 106.867 18.7387 106.867 18.7623C106.879 19.6218 106.977 20.146 107.593 20.8638C108.221 22.682 106.435 21.8225 105.447 21.9594C104.526 22.087 103.649 22.5025 103.131 22.7953C102.601 23.0976 102.535 23.3809 102.58 23.7209C102.613 23.7918 102.658 23.8484 102.711 23.9004C102.723 23.9146 102.727 23.9193 102.735 23.924C102.857 24.0279 103.029 24.0751 103.204 24.0515C104.485 23.4093 105.529 22.1767 107.161 22.8331C107.201 22.8473 107.222 22.8709 107.238 22.8992C107.348 23.0598 107.222 23.362 107.108 23.3762C106.447 23.2345 105.66 23.3006 105.272 23.4376C104.889 23.5793 104.656 23.8909 104.624 24.1743C104.644 24.1743 104.66 24.1601 104.689 24.1554C105.643 23.7918 107.263 23.9287 107.605 24.0751C107.772 24.1412 107.923 24.2499 108.066 24.3774C108.123 24.4246 108.172 24.4718 108.221 24.5238C108.494 24.8166 108.694 25.1613 108.792 25.3927C108.943 25.7516 108.792 25.9499 109.02 26.1577L109.033 26.1766C109.033 26.1766 109.045 26.1908 109.053 26.1955C110.036 26.8283 110.436 25.8508 111.215 25.9216C112.055 25.9122 112.899 26.545 113.466 26.9842C113.711 27.1778 114.045 27.4092 114.339 27.7067C114.384 27.7445 114.429 27.7917 114.47 27.8342C114.515 27.8767 114.551 27.9145 114.584 27.9617C114.865 28.2876 115.086 28.6748 115.159 29.1518C115.183 29.3832 115.016 29.5862 114.837 29.4304C114.829 29.4162 114.812 29.4021 114.792 29.3832L114.735 29.3218C114.714 29.2982 114.686 29.2604 114.649 29.2226C114.612 29.1848 114.568 29.1376 114.527 29.0951C114.486 29.0479 114.433 28.9959 114.38 28.9393C114.213 28.774 114.013 28.5756 113.784 28.3631C113.103 27.7303 112.165 27.0031 111.317 26.7528C111.088 26.8142 110.876 27.0881 110.852 27.2486C110.84 27.3478 110.782 27.4092 110.66 27.4422C109.514 27.6075 108.682 27.2108 108.192 26.7858C108.119 26.7291 108.062 26.663 108.001 26.5969C107.809 26.3797 107.703 26.1813 107.699 26.0538C107.691 25.7138 107.776 25.4541 107.617 25.2416C107.617 25.2368 107.609 25.2274 107.597 25.2227C107.577 25.1943 107.544 25.1707 107.515 25.1424C106.92 24.689 105.598 24.7315 105.023 25.4683C104.709 25.846 104.346 26.3372 104.187 26.9417C104.146 26.9228 104.11 26.8944 104.077 26.8708C103.665 26.4977 104.163 25.6383 103.991 25.3738C103.975 25.3502 103.959 25.336 103.93 25.3171C103.575 25.1424 103.506 26.1577 102.911 25.9499C102.898 25.9405 102.886 25.931 102.874 25.9216C102.796 25.8602 102.78 25.7563 102.731 25.6808C102.58 25.4541 102.401 25.2368 102.213 25.0291C102.16 24.9771 102.115 24.9204 102.07 24.8779C102.005 24.8071 101.944 24.7457 101.879 24.6843C101.809 24.6229 101.748 24.5615 101.683 24.5049C101.536 24.3632 101.393 24.2357 101.263 24.1223C101.034 23.8957 100.573 24.519 100.284 24.8543C99.4028 26.2144 99.0439 27.9003 98.7217 29.3454C98.6931 29.4729 98.6646 29.5957 98.6279 29.709C98.273 30.951 97.6653 31.7963 97.5266 32.2166C97.4165 32.585 97.3879 33.18 97.6367 33.402C97.7061 33.4681 97.7917 33.5106 97.9059 33.5012C97.9059 33.5059 97.8937 33.5201 97.8896 33.5437C97.857 33.6712 97.7713 34.0395 97.6816 34.1906C97.3798 34.7196 97.131 34.814 96.8536 35.3382C96.5763 35.8718 96.5355 36.2874 96.5232 36.8022L96.4539 37.5058L95.5158 37.5719V16.727L95.5035 16.7175ZM114.898 35.3335L112.744 35.5979C113.111 34.6015 113.646 33.4445 113.262 32.6369C113.124 32.0986 113.36 31.7161 113.789 31.6311C114.217 31.5555 115.799 32.3725 115.285 32.9156C114.678 33.5625 114.751 34.4787 114.898 35.3335ZM100.989 33.6948C100.965 33.6098 100.904 33.402 100.904 33.3878C100.892 33.0431 101.185 32.9581 100.859 32.3158C100.386 31.3713 101.964 30.7102 102.286 29.7421C102.295 29.7279 102.299 29.7137 102.307 29.6948C102.629 28.7787 103.367 28.0892 103.832 27.7917C104.061 27.6453 104.175 27.7161 104.236 27.8814C104.318 28.0892 104.509 29.2226 104.179 29.6098C104.159 29.6335 104.134 29.6665 104.11 29.6948C103.212 30.8566 102.572 33.6901 102.568 33.6948C102.494 33.9403 102.099 35.2768 101.862 36.226C101.854 36.278 101.83 36.4338 101.768 36.5708L101.695 36.8636L99.7658 37.095L100.039 36.4149L100.072 36.3158C100.104 36.2119 101.018 34.1104 100.998 33.7562C100.994 33.7373 100.989 33.7184 100.985 33.6995L100.989 33.6948ZM97.0086 53.5527C96.8006 54.0722 96.511 54.8798 96.3152 55.5409C96.2826 55.6542 96.2459 55.7817 96.2092 55.914C96.1765 56.0273 96.1439 56.1501 96.1154 56.2729C96.0256 56.6412 95.9522 57.0285 95.9481 57.3732H95.5158V56.2776V38.6628C96.0623 38.6156 96.4906 38.5731 96.6782 38.5542C97.0127 38.7242 98.0283 38.8234 98.4729 38.6959C98.5911 38.6581 98.8359 38.5164 99.0643 38.3322C99.7862 38.252 100.553 38.1575 101.369 38.0583C100.83 39.4231 100.108 41.2838 101.132 41.2838C101.401 41.2602 101.438 41.194 101.744 40.9154C102.054 40.6321 103.706 40.9721 104.452 41.8269C104.652 42.0724 104.065 42.4077 104.008 42.71C103.91 43.1869 104.358 43.0547 104.522 43.2436C104.713 43.5317 104.775 43.9803 104.42 44.207C104.155 44.2967 103.84 44.207 103.812 43.9236C103.792 43.6403 103.796 43.2058 103.498 43.1444C103.196 43.0878 103.359 42.3605 102.964 42.403C102.817 42.4455 101.866 43.3569 101.793 44.2023C101.707 45.0476 102.682 45.279 102.38 45.6332C101.838 46.2612 101.687 45.4395 101.087 45.227C100.488 45.0145 100.447 43.782 100.394 43.1586C99.6924 44.3581 97.6816 51.5174 97.2085 53.038C97.1554 53.2174 97.0902 53.3875 97.0208 53.5622L97.0086 53.5527ZM130.866 57.3685H98.5218C98.6279 57.1088 98.7665 56.7073 98.9134 56.2634C98.9501 56.1501 98.9909 56.032 99.0317 55.914C99.2519 55.2481 99.4844 54.5539 99.6761 54.1336C99.9698 53.5055 100.398 52.901 100.745 52.2966C100.761 52.2682 100.777 52.2399 100.79 52.2116C100.28 52.4052 99.7577 52.5421 99.5496 52.4052H99.5415C99.4354 52.3249 99.4151 52.1738 99.5252 51.9093C100.206 50.4926 101.324 51.5551 102.331 50.8137C102.735 50.5304 103.384 49.9259 103.384 49.9259C103.596 49.7228 103.779 49.5575 104 49.3025L108.086 45.4348C108.274 45.1845 110.942 42.0158 111.655 40.1032C111.753 39.834 111.81 39.5506 111.855 39.2673L112.055 37.8931C112.088 37.6428 112.145 37.2272 112.23 36.9108C112.239 36.8683 112.251 36.8163 112.263 36.7691C113.197 36.6605 114.119 36.5471 115.028 36.4433C115.028 36.4621 115.037 36.481 115.037 36.4952C115.037 36.5755 115.045 36.6416 115.037 36.6841L115.053 37.8931L115.069 37.9497C115.159 38.1575 115.289 38.3559 115.424 38.5023C115.432 38.5164 115.444 38.5259 115.453 38.5306C115.722 38.7714 116.729 38.8375 117.17 38.6628C117.292 38.6156 117.472 38.4125 117.635 38.1528C117.696 38.0631 117.765 37.9733 117.843 37.9072C118.071 37.5719 118.242 37.1941 118.369 36.788C118.422 36.5094 118.495 36.2732 118.532 36.0277C123.027 35.4988 126.69 35.0737 127.938 34.9273C128.199 34.899 128.35 34.8801 128.39 34.8754C129.063 34.8093 129.235 34.3418 129.235 34.3418L129.536 33.7798C129.536 33.7798 129.536 33.7798 129.536 33.7751C129.536 33.7751 129.536 33.7703 129.536 33.7656C129.541 33.7562 129.549 33.742 129.557 33.7184C129.557 33.709 129.565 33.6995 129.569 33.6901C129.569 33.6806 129.577 33.6712 129.585 33.657C129.598 33.6239 129.614 33.5909 129.634 33.5484C129.647 33.5248 129.655 33.5012 129.667 33.4775C129.675 33.4587 129.683 33.4398 129.691 33.4256C129.7 33.4067 129.708 33.3878 129.72 33.3689C129.72 33.3689 129.724 33.3595 129.728 33.3548C129.92 32.9345 130.226 32.2686 130.462 31.7444C130.475 31.7208 130.487 31.6925 130.495 31.6688C130.515 31.6216 130.54 31.5744 130.56 31.5272C130.597 31.4469 130.63 31.3713 130.666 31.291C130.732 31.1494 130.793 31.0077 130.854 30.8708V57.3638L130.866 57.3685ZM130.866 28.5379C130.666 28.4481 130.43 28.3395 130.242 28.2545C129.834 28.075 129.614 28.3064 129.614 28.3064C129.614 28.3064 129.418 28.9062 129.149 29.6996C128.782 30.7952 128.276 32.2497 127.938 33.062C127.807 33.3831 127.697 33.6003 127.64 33.6523C127.326 33.9167 126.575 33.8884 126.575 33.8884L118.291 34.8754H118.271C118.145 34.6157 118.022 34.4126 117.863 34.0159C117.782 33.8317 117.749 33.3548 117.724 33.2934C118.234 33.402 118.226 32.585 118.136 32.0939C118.1 31.8955 117.888 30.8991 117.472 29.6948C117.043 28.4623 116.415 27.0172 115.555 25.9877L115.355 25.761C115.277 25.6902 115.208 25.6146 115.134 25.5485C115.065 25.4777 114.996 25.4116 114.918 25.3502C113.76 24.3963 113.507 24.2546 112.695 23.8532C112.443 23.6879 111.725 23.3573 111.447 23.2392C111.178 23.1165 111.415 24.4246 110.093 23.8154C110.081 23.8154 110.069 23.8012 110.048 23.7965C109.893 22.7339 110.827 23.0976 111.125 22.9559C111.329 22.8614 111.451 22.7764 111.578 22.5639L111.965 21.1614C111.99 20.7977 111.945 20.4435 111.741 20.1885C111.733 20.1791 111.717 20.1649 111.704 20.1508C111.692 20.1366 111.68 20.1224 111.659 20.1083C111.097 20.146 110.546 20.1838 110.13 20.1508C110.069 20.1508 109.885 20.1413 109.832 20.1413C109.71 20.1271 109.571 20.1035 109.526 20.0941C109.485 20.0846 109.441 20.0657 109.404 20.0374C109.188 19.8532 109.147 19.3432 109.889 19.5085C111.533 19.8957 112.459 19.5085 112.487 19.3196C112.549 18.904 112.361 18.5451 112.267 18.4176C112.202 18.3279 112.141 18.3373 112.096 18.3184C112.075 18.3137 112.059 18.2995 112.051 18.2712C111.994 18.1154 111.88 17.9076 111.741 17.6856C111.627 17.5014 111.496 17.3173 111.358 17.1473C111.305 17.0859 111.256 17.0292 111.203 16.9725C111.17 16.9348 111.133 16.9017 111.101 16.8734C111.088 16.8497 111.064 16.8403 111.056 16.8261L110.827 16.7034H130.878V28.5237L130.866 28.5379ZM130.866 15.5605H95.5199V1.27034H130.866V15.5605Z" fill="#A08C6E"></path>
<path d="M129.736 33.3594C129.928 32.9391 130.234 32.2732 130.47 31.749C130.189 32.3677 129.912 32.9721 129.736 33.3594Z" fill="#A08C6E"></path>
</svg><style>@media (prefers-color-scheme: light) { :root { filter: none; } }
@media (prefers-color-scheme: dark) { :root { filter: none; } }
</style></svg>