<svg width="24" height="24" viewBox="0 0 24 24" fill="none" xmlns="http://www.w3.org/2000/svg">
<g clip-path="url(#clip0_13_1072)">
<path d="M12 24C18.6274 24 24 18.6274 24 12C24 5.37258 18.6274 0 12 0C5.37258 0 0 5.37258 0 12C0 18.6274 5.37258 24 12 24Z" fill="#F0F0F0"/>
<path d="M10.9569 11.9995C10.9569 11.9995 3.52212 20.4865 3.51509 20.4848C5.68662 22.6564 8.68667 23.9995 12.0004 23.9995C18.6278 23.9995 24.0004 18.6269 24.0004 11.9995H10.9569Z" fill="#D80027"/>
<path d="M3.51517 3.51465C-1.17111 8.20093 -1.17111 15.7989 3.51517 20.4853C5.45172 18.5487 7.3142 16.6862 12.0005 12L3.51517 3.51465Z" fill="#0052B4"/>
</g>
<defs>
<clipPath id="clip0_13_1072">
<rect width="24" height="24" fill="white"/>
</clipPath>
</defs>
</svg>
