<svg width="900" height="390" viewBox="0 0 900 390" fill="none" xmlns="http://www.w3.org/2000/svg">
<g opacity="0.5" clip-path="url(#clip0_13_1104)">
<path d="M0 0.334544L230.905 46.1177L461.302 0.334544L691.698 46.1177L922.095 0.334544L1153 46.1177" stroke="#A08C6E" stroke-width="0.365" stroke-miterlimit="10"/>
<path d="M0 8.98258L230.905 55.2744L461.302 8.98258L691.698 55.2744L922.095 8.98258L1153 55.2744" stroke="#A08C6E" stroke-width="0.365" stroke-miterlimit="10"/>
<path d="M0 18.1392L230.905 63.9224L461.302 18.1392L691.698 63.9224L922.095 18.1392L1153 63.9224" stroke="#A08C6E" stroke-width="0.365" stroke-miterlimit="10"/>
<path d="M0 26.7872L230.905 72.5703L461.302 26.7872L691.698 72.5703L922.095 26.7872L1153 72.5703" stroke="#A08C6E" stroke-width="0.365" stroke-miterlimit="10"/>
<path d="M0 35.4347L230.905 81.2178L461.302 35.4347L691.698 81.2178L922.095 35.4347L1153 81.2178" stroke="#A08C6E" stroke-width="0.365" stroke-miterlimit="10"/>
<path d="M0 44.0827L230.905 90.3745L461.302 44.0827L691.698 90.3745L922.095 44.0827L1153 90.3745" stroke="#A08C6E" stroke-width="0.365" stroke-miterlimit="10"/>
<path d="M0 53.2393L230.905 99.0225L461.302 53.2393L691.698 99.0225L922.095 53.2393L1153 99.0225" stroke="#A08C6E" stroke-width="0.365" stroke-miterlimit="10"/>
<path d="M0 61.8873L230.905 107.67L461.302 61.8873L691.698 107.67L922.095 61.8873L1153 107.67" stroke="#A08C6E" stroke-width="0.365" stroke-miterlimit="10"/>
<path d="M0 70.5353L230.905 116.827L461.302 70.5353L691.698 116.827L922.095 70.5353L1153 116.827" stroke="#A08C6E" stroke-width="0.365" stroke-miterlimit="10"/>
<path d="M0 79.1833L230.905 125.475L461.302 79.1833L691.698 125.475L922.095 79.1833L1153 125.475" stroke="#A08C6E" stroke-width="0.365" stroke-miterlimit="10"/>
<path d="M0 88.3399L230.905 134.123L461.302 88.3399L691.698 134.123L922.095 88.3399L1153 134.123" stroke="#A08C6E" stroke-width="0.365" stroke-miterlimit="10"/>
<path d="M0 96.9879L230.905 142.771L461.302 96.9879L691.698 142.771L922.095 96.9879L1153 142.771" stroke="#A08C6E" stroke-width="0.365" stroke-miterlimit="10"/>
<path d="M0 105.636L230.905 151.928L461.302 105.636L691.698 151.928L922.095 105.636L1153 151.928" stroke="#A08C6E" stroke-width="0.365" stroke-miterlimit="10"/>
<path d="M0 114.793L230.905 160.576L461.302 114.793L691.698 160.576L922.095 114.793L1153 160.576" stroke="#A08C6E" stroke-width="0.365" stroke-miterlimit="10"/>
<path d="M0 123.44L230.905 169.223L461.302 123.44L691.698 169.223L922.095 123.44L1153 169.223" stroke="#A08C6E" stroke-width="0.365" stroke-miterlimit="10"/>
<path d="M0 132.088L230.905 177.871L461.302 132.088L691.698 177.871L922.095 132.088L1153 177.871" stroke="#A08C6E" stroke-width="0.365" stroke-miterlimit="10"/>
<path d="M0 140.736L230.905 187.028L461.302 140.736L691.698 187.028L922.095 140.736L1153 187.028" stroke="#A08C6E" stroke-width="0.365" stroke-miterlimit="10"/>
<path d="M0 149.893L230.905 195.676L461.302 149.893L691.698 195.676L922.095 149.893L1153 195.676" stroke="#A08C6E" stroke-width="0.365" stroke-miterlimit="10"/>
<path d="M0 158.541L230.905 204.324L461.302 158.541L691.698 204.324L922.095 158.541L1153 204.324" stroke="#A08C6E" stroke-width="0.365" stroke-miterlimit="10"/>
<path d="M0 167.189L230.905 213.48L461.302 167.189L691.698 213.48L922.095 167.189L1153 213.48" stroke="#A08C6E" stroke-width="0.365" stroke-miterlimit="10"/>
<path d="M0 175.837L230.905 222.128L461.302 175.837L691.698 222.128L922.095 175.837L1153 222.128" stroke="#A08C6E" stroke-width="0.365" stroke-miterlimit="10"/>
<path d="M0 184.993L230.905 230.776L461.302 184.993L691.698 230.776L922.095 184.993L1153 230.776" stroke="#A08C6E" stroke-width="0.365" stroke-miterlimit="10"/>
<path d="M0 193.641L230.905 239.424L461.302 193.641L691.698 239.424L922.095 193.641L1153 239.424" stroke="#A08C6E" stroke-width="0.365" stroke-miterlimit="10"/>
<path d="M0 202.289L230.905 248.581L461.302 202.289L691.698 248.581L922.095 202.289L1153 248.581" stroke="#A08C6E" stroke-width="0.365" stroke-miterlimit="10"/>
<path d="M0 211.445L230.905 257.229L461.302 211.445L691.698 257.229L922.095 211.445L1153 257.229" stroke="#A08C6E" stroke-width="0.365" stroke-miterlimit="10"/>
<path d="M0 220.093L230.905 265.876L461.302 220.093L691.698 265.876L922.095 220.093L1153 265.876" stroke="#A08C6E" stroke-width="0.365" stroke-miterlimit="10"/>
<path d="M0 228.741L230.905 275.033L461.302 228.741L691.698 275.033L922.095 228.741L1153 275.033" stroke="#A08C6E" stroke-width="0.365" stroke-miterlimit="10"/>
<path d="M0 237.389L230.905 283.681L461.302 237.389L691.698 283.681L922.095 237.389L1153 283.681" stroke="#A08C6E" stroke-width="0.365" stroke-miterlimit="10"/>
<path d="M0 246.546L230.905 292.329L461.302 246.546L691.698 292.329L922.095 246.546L1153 292.329" stroke="#A08C6E" stroke-width="0.365" stroke-miterlimit="10"/>
<path d="M0 255.194L230.905 300.977L461.302 255.194L691.698 300.977L922.095 255.194L1153 300.977" stroke="#A08C6E" stroke-width="0.365" stroke-miterlimit="10"/>
<path d="M0 263.842L230.905 310.134L461.302 263.842L691.698 310.134L922.095 263.842L1153 310.134" stroke="#A08C6E" stroke-width="0.365" stroke-miterlimit="10"/>
<path d="M0 272.999L230.905 318.782L461.302 272.999L691.698 318.782L922.095 272.999L1153 318.782" stroke="#A08C6E" stroke-width="0.365" stroke-miterlimit="10"/>
<path d="M0 281.647L230.905 327.43L461.302 281.647L691.698 327.43L922.095 281.647L1153 327.43" stroke="#A08C6E" stroke-width="0.365" stroke-miterlimit="10"/>
<path d="M0 290.295L230.905 336.078L461.302 290.295L691.698 336.078L922.095 290.295L1153 336.078" stroke="#A08C6E" stroke-width="0.365" stroke-miterlimit="10"/>
<path d="M0 298.942L230.905 345.234L461.302 298.942L691.698 345.234L922.095 298.942L1153 345.234" stroke="#A08C6E" stroke-width="0.365" stroke-miterlimit="10"/>
<path d="M0 308.099L230.905 353.882L461.302 308.099L691.698 353.882L922.095 308.099L1153 353.882" stroke="#A08C6E" stroke-width="0.365" stroke-miterlimit="10"/>
<path d="M0 316.747L230.905 362.53L461.302 316.747L691.698 362.53L922.095 316.747L1153 362.53" stroke="#A08C6E" stroke-width="0.365" stroke-miterlimit="10"/>
<path d="M0 325.395L230.905 371.687L461.302 325.395L691.698 371.687L922.095 325.395L1153 371.687" stroke="#A08C6E" stroke-width="0.365" stroke-miterlimit="10"/>
<path d="M0 334.043L230.905 380.334L461.302 334.043L691.698 380.334L922.095 334.043L1153 380.334" stroke="#A08C6E" stroke-width="0.365" stroke-miterlimit="10"/>
<path d="M0 343.199L230.905 388.982L461.302 343.199L691.698 388.982L922.095 343.199L1153 388.982" stroke="#A08C6E" stroke-width="0.365" stroke-miterlimit="10"/>
</g>
<defs>
<clipPath id="clip0_13_1104">
<rect width="390" height="1153" fill="white" transform="matrix(0 -1 1 0 0 390)"/>
</clipPath>
</defs>
</svg>
