<svg width="1920" height="356" viewBox="0 0 1920 356" fill="none" xmlns="http://www.w3.org/2000/svg">
<g opacity="0.5" clip-path="url(#clip0_11_2086)">
<path d="M0 1.69365L384.508 78.7451L768.169 1.69365L1151.83 78.7451L1535.49 1.69365L1920 78.7451" stroke="#A08C6E" stroke-width="0.365" stroke-miterlimit="10"/>
<path d="M0 16.9343L384.508 93.1392L768.169 16.9343L1151.83 93.1392L1535.49 16.9343L1920 93.1392" stroke="#A08C6E" stroke-width="0.365" stroke-miterlimit="10"/>
<path d="M0 31.3289L384.508 107.534L768.169 31.3289L1151.83 107.534L1535.49 31.3289L1920 107.534" stroke="#A08C6E" stroke-width="0.365" stroke-miterlimit="10"/>
<path d="M0 45.7228L384.508 122.774L768.169 45.7228L1151.83 122.774L1535.49 45.7228L1920 122.774" stroke="#A08C6E" stroke-width="0.365" stroke-miterlimit="10"/>
<path d="M0 60.1174L384.508 137.169L768.169 60.1174L1151.83 137.169L1535.49 60.1174L1920 137.169" stroke="#A08C6E" stroke-width="0.365" stroke-miterlimit="10"/>
<path d="M0 75.3582L384.508 151.563L768.169 75.3582L1151.83 151.563L1535.49 75.3582L1920 151.563" stroke="#A08C6E" stroke-width="0.365" stroke-miterlimit="10"/>
<path d="M0 89.7522L384.508 165.957L768.169 89.7522L1151.83 165.957L1535.49 89.7522L1920 165.957" stroke="#A08C6E" stroke-width="0.365" stroke-miterlimit="10"/>
<path d="M0 104.147L384.508 181.198L768.169 104.147L1151.83 181.198L1535.49 104.147L1920 181.198" stroke="#A08C6E" stroke-width="0.365" stroke-miterlimit="10"/>
<path d="M0 119.387L384.508 195.592L768.169 119.387L1151.83 195.592L1535.49 119.387L1920 195.592" stroke="#A08C6E" stroke-width="0.365" stroke-miterlimit="10"/>
<path d="M0 133.782L384.508 209.987L768.169 133.782L1151.83 209.987L1535.49 133.782L1920 209.987" stroke="#A08C6E" stroke-width="0.365" stroke-miterlimit="10"/>
<path d="M0 148.176L384.508 224.381L768.169 148.176L1151.83 224.381L1535.49 148.176L1920 224.381" stroke="#A08C6E" stroke-width="0.365" stroke-miterlimit="10"/>
<path d="M0 162.571L384.508 239.622L768.169 162.571L1151.83 239.622L1535.49 162.571L1920 239.622" stroke="#A08C6E" stroke-width="0.365" stroke-miterlimit="10"/>
<path d="M0 177.811L384.508 254.016L768.169 177.811L1151.83 254.016L1535.49 177.811L1920 254.016" stroke="#A08C6E" stroke-width="0.365" stroke-miterlimit="10"/>
<path d="M0 192.205L384.508 268.41L768.169 192.205L1151.83 268.41L1535.49 192.205L1920 268.41" stroke="#A08C6E" stroke-width="0.365" stroke-miterlimit="10"/>
<path d="M0 206.6L384.508 283.651L768.169 206.6L1151.83 283.651L1535.49 206.6L1920 283.651" stroke="#A08C6E" stroke-width="0.365" stroke-miterlimit="10"/>
<path d="M0 220.994L384.508 298.046L768.169 220.994L1151.83 298.046L1535.49 220.994L1920 298.046" stroke="#A08C6E" stroke-width="0.365" stroke-miterlimit="10"/>
<path d="M0 236.235L384.508 312.439L768.169 236.235L1151.83 312.439L1535.49 236.235L1920 312.439" stroke="#A08C6E" stroke-width="0.365" stroke-miterlimit="10"/>
<path d="M0 250.629L384.508 326.834L768.169 250.629L1151.83 326.834L1535.49 250.629L1920 326.834" stroke="#A08C6E" stroke-width="0.365" stroke-miterlimit="10"/>
<path d="M0 265.024L384.508 342.075L768.169 265.024L1151.83 342.075L1535.49 265.024L1920 342.075" stroke="#A08C6E" stroke-width="0.365" stroke-miterlimit="10"/>
<path d="M0 280.264L384.508 356.469L768.169 280.264L1151.83 356.469L1535.49 280.264L1920 356.469" stroke="#A08C6E" stroke-width="0.365" stroke-miterlimit="10"/>
<path d="M0 294.658L384.508 370.863L768.169 294.658L1151.83 370.863L1535.49 294.658L1920 370.863" stroke="#A08C6E" stroke-width="0.365" stroke-miterlimit="10"/>
<path d="M0 309.053L384.508 386.104L768.169 309.053L1151.83 386.104L1535.49 309.053L1920 386.104" stroke="#A08C6E" stroke-width="0.365" stroke-miterlimit="10"/>
<path d="M0 323.447L384.508 400.499L768.169 323.447L1151.83 400.499L1535.49 323.447L1920 400.499" stroke="#A08C6E" stroke-width="0.365" stroke-miterlimit="10"/>
<path d="M0 338.688L384.508 414.893L768.169 338.688L1151.83 414.893L1535.49 338.688L1920 414.893" stroke="#A08C6E" stroke-width="0.365" stroke-miterlimit="10"/>
<path d="M0 353.082L384.508 429.287L768.169 353.082L1151.83 429.287L1535.49 353.082L1920 429.287" stroke="#A08C6E" stroke-width="0.365" stroke-miterlimit="10"/>
</g>
<defs>
<clipPath id="clip0_11_2086">
<rect width="1265" height="1920" fill="white" transform="matrix(0 -1 1 0 0 1265)"/>
</clipPath>
</defs>
</svg>
