<svg width="24" height="24" viewBox="0 0 24 24" fill="none" xmlns="http://www.w3.org/2000/svg"><g clip-path="url(#clip0_11_2329)"><path d="M.746 16.175C2.442 20.745 6.84 24 12 24c5.16 0 9.558-3.257 11.254-7.826L12 15.13.746 16.175z" fill="#FFDA44"/><path d="M12 .001C6.84.001 2.442 3.257.746 7.827L12 8.871l11.254-1.044C21.558 3.257 17.159.001 12 .001z" fill="#000"/><path d="M.746 7.826A11.974 11.974 0 000 12c0 1.467.264 2.873.746 4.174h22.508c.482-1.3.746-2.707.746-4.174 0-1.468-.264-2.874-.746-4.174H.746z" fill="#D80027"/></g><defs><clipPath id="clip0_11_2329"><path fill="#fff" d="M0 0h24v24H0z"/></clipPath></defs></svg>