<svg width="900" height="390" viewBox="0 0 900 390" fill="none" xmlns="http://www.w3.org/2000/svg"><g opacity=".5" clip-path="url(#clip0_13_1104)" stroke="#A08C6E" stroke-width=".36" stroke-miterlimit="10"><path d="M0 .335l230.905 45.783L461.302.335l230.396 45.783L922.095.335 1153 46.118"/><path d="M0 8.983l230.905 46.291L461.302 8.983l230.396 46.291L922.095 8.983 1153 55.274"/><path d="M0 18.14l230.905 45.782L461.302 18.14l230.396 45.783L922.095 18.14 1153 63.922"/><path d="M0 26.787L230.905 72.57l230.397-45.783L691.698 72.57l230.397-45.783L1153 72.57"/><path d="M0 35.435l230.905 45.783 230.397-45.783 230.396 45.783 230.397-45.783L1153 81.218"/><path d="M0 44.083l230.905 46.291 230.397-46.291 230.396 46.291 230.397-46.291L1153 90.374"/><path d="M0 53.24l230.905 45.782L461.302 53.24l230.396 45.783L922.095 53.24 1153 99.022"/><path d="M0 61.887l230.905 45.783 230.397-45.783 230.396 45.783 230.397-45.783L1153 107.67"/><path d="M0 70.535l230.905 46.292 230.397-46.292 230.396 46.292 230.397-46.292L1153 116.827"/><path d="M0 79.183l230.905 46.292 230.397-46.292 230.396 46.292 230.397-46.292L1153 125.475"/><path d="M0 88.34l230.905 45.783L461.302 88.34l230.396 45.783L922.095 88.34 1153 134.123"/><path d="M0 96.988l230.905 45.783 230.397-45.783 230.396 45.783 230.397-45.783L1153 142.77"/><path d="M0 105.636l230.905 46.292 230.397-46.292 230.396 46.292 230.397-46.292L1153 151.928"/><path d="M0 114.793l230.905 45.783 230.397-45.783 230.396 45.783 230.397-45.783L1153 160.576"/><path d="M0 123.44l230.905 45.783 230.397-45.783 230.396 45.783 230.397-45.783L1153 169.223"/><path d="M0 132.088l230.905 45.783 230.397-45.783 230.396 45.783 230.397-45.783L1153 177.871"/><path d="M0 140.736l230.905 46.292 230.397-46.292 230.396 46.292 230.397-46.292L1153 187.028"/><path d="M0 149.893l230.905 45.783 230.397-45.783 230.396 45.783 230.397-45.783L1153 195.676"/><path d="M0 158.541l230.905 45.783 230.397-45.783 230.396 45.783 230.397-45.783L1153 204.324"/><path d="M0 167.189l230.905 46.291 230.397-46.291 230.396 46.291 230.397-46.291L1153 213.48"/><path d="M0 175.837l230.905 46.291 230.397-46.291 230.396 46.291 230.397-46.291L1153 222.128"/><path d="M0 184.993l230.905 45.783 230.397-45.783 230.396 45.783 230.397-45.783L1153 230.776"/><path d="M0 193.641l230.905 45.783 230.397-45.783 230.396 45.783 230.397-45.783L1153 239.424"/><path d="M0 202.289l230.905 46.292 230.397-46.292 230.396 46.292 230.397-46.292L1153 248.581"/><path d="M0 211.445l230.905 45.784 230.397-45.784 230.396 45.784 230.397-45.784L1153 257.229"/><path d="M0 220.093l230.905 45.783 230.397-45.783 230.396 45.783 230.397-45.783L1153 265.876"/><path d="M0 228.741l230.905 46.292 230.397-46.292 230.396 46.292 230.397-46.292L1153 275.033"/><path d="M0 237.389l230.905 46.292 230.397-46.292 230.396 46.292 230.397-46.292L1153 283.681"/><path d="M0 246.546l230.905 45.783 230.397-45.783 230.396 45.783 230.397-45.783L1153 292.329"/><path d="M0 255.194l230.905 45.783 230.397-45.783 230.396 45.783 230.397-45.783L1153 300.977"/><path d="M0 263.842l230.905 46.292 230.397-46.292 230.396 46.292 230.397-46.292L1153 310.134"/><path d="M0 272.999l230.905 45.783 230.397-45.783 230.396 45.783 230.397-45.783L1153 318.782"/><path d="M0 281.647l230.905 45.783 230.397-45.783 230.396 45.783 230.397-45.783L1153 327.43"/><path d="M0 290.295l230.905 45.783 230.397-45.783 230.396 45.783 230.397-45.783L1153 336.078"/><path d="M0 298.942l230.905 46.292 230.397-46.292 230.396 46.292 230.397-46.292L1153 345.234"/><path d="M0 308.099l230.905 45.783 230.397-45.783 230.396 45.783 230.397-45.783L1153 353.882"/><path d="M0 316.747l230.905 45.783 230.397-45.783 230.396 45.783 230.397-45.783L1153 362.53"/><path d="M0 325.395l230.905 46.292 230.397-46.292 230.396 46.292 230.397-46.292L1153 371.687"/><path d="M0 334.043l230.905 46.291 230.397-46.291 230.396 46.291 230.397-46.291L1153 380.334"/><path d="M0 343.199l230.905 45.783 230.397-45.783 230.396 45.783 230.397-45.783L1153 388.982"/></g><defs><clipPath id="clip0_13_1104"><path fill="#fff" transform="rotate(-90 195 195)" d="M0 0h390v1153H0z"/></clipPath></defs></svg>