<svg width="1920" height="356" viewBox="0 0 1920 356" fill="none" xmlns="http://www.w3.org/2000/svg"><g opacity=".5" clip-path="url(#clip0_11_2086)" stroke="#A08C6E" stroke-width=".36" stroke-miterlimit="10"><path d="M0 1.694l384.508 77.051L768.169 1.694l383.661 77.051 383.66-77.051L1920 78.745"/><path d="M0 16.934L384.508 93.14l383.661-76.205L1151.83 93.14l383.66-76.205L1920 93.14"/><path d="M0 31.329l384.508 76.205 383.661-76.205 383.661 76.205 383.66-76.205L1920 107.534"/><path d="M0 45.723l384.508 77.051 383.661-77.051 383.661 77.051 383.66-77.051L1920 122.774"/><path d="M0 60.117l384.508 77.052 383.661-77.052 383.661 77.052 383.66-77.052L1920 137.17"/><path d="M0 75.358l384.508 76.205 383.661-76.205 383.661 76.205 383.66-76.205L1920 151.563"/><path d="M0 89.752l384.508 76.205 383.661-76.205 383.661 76.205 383.66-76.205L1920 165.957"/><path d="M0 104.147l384.508 77.051 383.661-77.051 383.661 77.051 383.66-77.051L1920 181.198"/><path d="M0 119.387l384.508 76.205 383.661-76.205 383.661 76.205 383.66-76.205L1920 195.592"/><path d="M0 133.782l384.508 76.205 383.661-76.205 383.661 76.205 383.66-76.205L1920 209.987"/><path d="M0 148.176l384.508 76.205 383.661-76.205 383.661 76.205 383.66-76.205L1920 224.381"/><path d="M0 162.571l384.508 77.051 383.661-77.051 383.661 77.051 383.66-77.051L1920 239.622"/><path d="M0 177.811l384.508 76.205 383.661-76.205 383.661 76.205 383.66-76.205L1920 254.016"/><path d="M0 192.205l384.508 76.205 383.661-76.205 383.661 76.205 383.66-76.205L1920 268.41"/><path d="M0 206.6l384.508 77.051L768.169 206.6l383.661 77.051 383.66-77.051L1920 283.651"/><path d="M0 220.994l384.508 77.052 383.661-77.052 383.661 77.052 383.66-77.052L1920 298.046"/><path d="M0 236.235l384.508 76.204 383.661-76.204 383.661 76.204 383.66-76.204L1920 312.439"/><path d="M0 250.629l384.508 76.205 383.661-76.205 383.661 76.205 383.66-76.205L1920 326.834"/><path d="M0 265.024l384.508 77.051 383.661-77.051 383.661 77.051 383.66-77.051L1920 342.075"/><path d="M0 280.264l384.508 76.205 383.661-76.205 383.661 76.205 383.66-76.205L1920 356.469"/><path d="M0 294.658l384.508 76.205 383.661-76.205 383.661 76.205 383.66-76.205L1920 370.863"/><path d="M0 309.053l384.508 77.051 383.661-77.051 383.661 77.051 383.66-77.051L1920 386.104"/><path d="M0 323.447l384.508 77.052 383.661-77.052 383.661 77.052 383.66-77.052L1920 400.499"/><path d="M0 338.688l384.508 76.205 383.661-76.205 383.661 76.205 383.66-76.205L1920 414.893"/><path d="M0 353.082l384.508 76.205 383.661-76.205 383.661 76.205 383.66-76.205L1920 429.287"/></g><defs><clipPath id="clip0_11_2086"><path fill="#fff" transform="rotate(-90 632.5 632.5)" d="M0 0h1265v1920H0z"/></clipPath></defs></svg>