<svg width="1920" height="100" viewBox="0 0 1920 100" fill="none" xmlns="http://www.w3.org/2000/svg"><g opacity=".5" clip-path="url(#clip0_11_1919)" stroke="#A08C6E" stroke-width=".36" stroke-miterlimit="10"><path d="M0-65.957l384.508 76.205 383.661-76.205 383.661 76.205 383.66-76.205L1920 10.248"/><path d="M0-51.563L384.508 25.49l383.661-77.052L1151.83 25.49l383.66-77.052L1920 25.49"/><path d="M0-36.322l384.508 76.205 383.661-76.205 383.661 76.205 383.66-76.205L1920 39.883"/><path d="M0-21.927l384.508 76.204 383.661-76.204 383.661 76.204 383.66-76.204L1920 54.276"/><path d="M0-7.533l384.508 77.051L768.169-7.533l383.661 77.051 383.66-77.051L1920 69.518"/><path d="M0 6.861l384.508 77.052L768.169 6.86l383.661 77.052L1535.49 6.86 1920 83.913"/><path d="M0 22.102l384.508 76.205 383.661-76.205 383.661 76.205 383.66-76.205L1920 98.307"/></g><defs><clipPath id="clip0_11_1919"><path fill="#fff" transform="rotate(-90 50 50)" d="M0 0h1265v1920H0z"/></clipPath></defs></svg>