<svg width="132" height="130" viewBox="0 0 132 130" fill="none" xmlns="http://www.w3.org/2000/svg"><path d="M132 109.504H0v1.889h132v-1.889zM48.99 129.273h-1.045l-.118.722h-1.22l1.171-6.323h1.375l1.17 6.323h-1.22l-.118-.722h.004zm-.18-1.171l-.322-2.017-.025-.227-.024.227-.322 2.017H48.81zM56.902 127.648h-1.125v2.347h-1.171v-6.323h2.296c.494 0 .828.387.828.959v2.059c0 .571-.326.958-.828.958zm-.367-2.71h-.758v1.445h.758s.025-.01.025-.029v-1.393s-.009-.028-.025-.028v.005zM64.366 130l-.726-2.125-.318.76V130h-1.17v-6.324h1.17v2.602l1.032-2.602h1.22l-1.171 2.82L65.667 130h-1.301zM75.24 130v-6.324h1.17v5.058h1.563V130H75.24zM84.222 130v-2.593h-.78V130h-1.17v-6.324h1.17v2.465h.78v-2.465h1.17V130h-1.17zM8.92 58.747l-2.916-8.533-1.285 3.05v5.483H.012v-25.42H4.72v10.46l4.14-10.46h4.894L9.047 44.654l5.082 14.092H8.92zM23.273 58.747v-25.42h4.707v20.339h6.273v5.086h-10.98v-.005zM55.76 58.823h-5.897c-2.007 0-3.324-1.563-3.324-3.849V33.331h4.706v20.231c0 .07.033.109.094.109h2.95c.06 0 .093-.038.093-.109v-20.23h4.707v21.642c0 2.29-1.35 3.849-3.324 3.849h-.004zM80.588 58.747h-9.222v-25.42h9.222c1.974 0 3.324 1.562 3.324 3.848v5.591c0 1.488-.596 2.65-1.566 2.943v.07c.97.293 1.566 1.488 1.566 2.98v6.14c0 2.285-1.35 3.848-3.324 3.848zm-1.379-15.433v-4.793c0-.071-.032-.109-.094-.109h-3.042v5.01h3.042c.062 0 .094-.037.094-.108zm0 10.243v-5.303c0-.07-.032-.109-.094-.109h-3.042v5.52h3.042c.062 0 .094-.037.094-.108zM.012 96.872V71.45H4.72v20.34h6.273v5.085H.012v-.004zM23.273 96.872V71.45h10.98v5.086H27.98v5.01h4.707v4.723H27.98v5.52h6.273v5.086h-10.98v-.004zM55.756 96.943h-5.898c-1.974 0-3.324-1.563-3.324-3.849v-17.87c0-2.29 1.35-3.849 3.324-3.849h5.898c1.974 0 3.324 1.564 3.324 3.85v4.391h-4.706v-2.98c0-.07-.033-.108-.094-.108h-2.95c-.06 0-.093.037-.093.108v15.037c0 .07.033.108.094.108h2.949c.06 0 .093-.038.093-.108v-4.25H52.4v-5.087h6.681v10.749c0 2.285-1.35 3.849-3.324 3.849v.009zM71.366 96.872V71.45h10.98v5.086h-6.273v5.01h4.706v4.723h-4.706v5.52h6.273v5.086h-10.98v-.004zM102.845 96.872l-3.418-12.675-.094-.543v13.218h-4.707V71.451h4.956l2.79 10.966.094.58v-11.55h4.707v25.42h-4.328v.005zM128.676 96.872h-9.222V71.45h9.222c1.974 0 3.324 1.563 3.324 3.849v17.723c0 2.286-1.35 3.849-3.324 3.849zm-1.379-5.195V76.641c0-.071-.033-.109-.094-.109h-3.043v15.254h3.043c.061 0 .094-.038.094-.109zM17.13 8.17l-5.477-.416-2.064-6.002-2.06 6.002-5.473.416 4.197 4.123-1.379 6.262 4.715-3.453 4.715 3.453-1.374-6.262 4.2-4.123zM49.5 8.17l-5.478-.416-2.06-6.002-2.064 6.002-5.474.416 4.197 4.123-1.374 6.262 4.715-3.453 4.71 3.453-1.374-6.262L49.5 8.17zM81.868 8.17l-5.477-.416-2.06-6.002-2.064 6.002-5.47.416 4.193 4.123-1.374 6.262 4.715-3.453 4.715 3.453-1.379-6.262 4.201-4.123zM130.866 30.875l-.028.071s-.061.137-.159.35c.065-.142.126-.284.187-.42zM109.11 5.133h-1.069l-.126.978h1.069l.126-.978zM104.966 10.758h1.11l.611-4.647h.91l.131-.978h-3.027l-.126.978h1.003l-.612 4.647zM108.38 10.758l.555-4.279h-1.069l-.558 4.279h1.072zM109.926 12.16l.183-1.426s.245.095.62.095c1.171 0 1.913-.794 2.101-2.239.175-1.331-.404-2.215-1.705-2.215-.575 0-1.187.114-1.558.293l-.718 5.488h1.073l.004.005zm.608-4.708s.183-.085.456-.085c.514 0 .886.35.767 1.261-.102.78-.493 1.242-1.052 1.242-.298 0-.469-.1-.469-.1l.302-2.313-.004-.005zM114.09 9.88a4.426 4.426 0 01-1.072-.152l-.176.95s.563.18 1.265.18c.901 0 1.505-.398 1.607-1.163.073-.562-.098-.987-.898-1.506-.399-.26-.603-.359-.575-.572.029-.23.351-.264.531-.264.456 0 .983.132.983.132l.142-.963s-.473-.147-1.166-.147c-.857 0-1.46.397-1.554 1.124-.074.558.106 1.025.881 1.526.387.25.607.382.575.604-.025.156-.192.25-.551.25h.008zM116.766 12.16l.183-1.426s.241.095.62.095c1.171 0 1.913-.794 2.101-2.239.175-1.331-.404-2.215-1.705-2.215-.575 0-1.187.114-1.558.293l-.718 5.488h1.073l.004.005zm.607-4.708s.184-.085.457-.085H117.912c.514 0 .885.35.767 1.261-.102.78-.494 1.242-1.053 1.242H117.545c-.298 0-.469-.1-.469-.1l.302-2.313-.005-.005z" fill="#A08C6E"/><path d="M117.578 9.865c-.27-.01-.425-.099-.425-.099l.302-2.314s.163-.075.412-.085h-.037c-.273 0-.456.085-.456.085l-.302 2.314s.171.1.469.1h.037zM121.448 10.857c1.224 0 1.917-.76 2.109-2.253.135-1.043-.294-2.229-1.558-2.229-1.265 0-1.917.76-2.109 2.253-.134 1.044.261 2.23 1.558 2.23zm-.481-2.257c.135-1.016.571-1.233.914-1.233.44 0 .717.402.603 1.27-.134 1.016-.571 1.233-.913 1.233-.437 0-.718-.401-.604-1.27zM125.185 7.462s.31-.147.868-.071l.131-.992c-.461-.047-1.256-.019-1.978.364l-.522 4h1.072l.433-3.301h-.004zM126.983 10.833c.261 0 .612-.052.73-.094l.135-1.035c-.09.02-.261.029-.322.029-.339 0-.457-.184-.42-.482l.24-1.846h.8l.122-.926h-.799l.167-1.294-1.13.453-.51 3.906c-.094.718.18 1.29.987 1.29zM104.305 4.07l-3.777 2.612-2.471-1.936 1.835 6.833 4.413-7.508zM110.97 54.53h4.785v-1.969h-2.949V50.21h2.688v-1.974h-2.688v-2.351h2.949V43.91h-4.785v10.62zM118.642 43.91h-1.835v10.62h4.784v-1.969h-2.949V43.91zM126.18 48.235h-1.836V43.91h-1.835v10.62h1.835v-4.32h1.836v4.32h1.835V43.91h-1.835v4.325z" fill="#A08C6E"/><path d="M94.496 0v58.559h37.382V0H94.496zm1.008 16.718h12.485l-.298.122s-.033.029-.045.047c-.261.26-.408.487-.49.813a3.354 3.354 0 00-.085.75c-.021.076-.09.067-.151.119-.061.052-.053.17-.053.193.012.86.11 1.384.726 2.102.628 1.818-1.158.959-2.146 1.095-.921.128-1.798.544-2.316.836-.53.303-.596.586-.551.926a.608.608 0 00.155.203.6.6 0 00.469.128c1.281-.643 2.325-1.875 3.957-1.219.04.014.061.038.077.066.11.16-.016.463-.13.477-.661-.142-1.448-.075-1.836.062-.383.141-.616.453-.648.736.02 0 .036-.014.065-.019.954-.363 2.574-.226 2.916-.08.167.066.318.175.461.302.057.048.106.095.155.147.273.293.473.637.571.869.151.359 0 .557.228.765l.013.019s.012.014.02.018c.983.633 1.383-.344 2.162-.273.84-.01 1.684.623 2.251 1.062.245.194.579.425.873.723.045.037.09.085.131.127a.81.81 0 01.114.128c.281.326.502.713.575 1.19.024.231-.143.434-.322.278-.008-.014-.025-.028-.045-.047l-.057-.061c-.021-.024-.049-.062-.086-.1-.037-.037-.081-.084-.122-.127-.041-.047-.094-.1-.147-.156-.167-.165-.367-.363-.596-.576-.681-.633-1.619-1.36-2.467-1.61-.229.061-.441.335-.465.496-.012.099-.07.16-.192.193-1.146.166-1.978-.231-2.468-.656-.073-.057-.13-.123-.191-.19-.192-.216-.298-.415-.302-.542-.008-.34.077-.6-.082-.812 0-.005-.008-.015-.02-.02-.02-.028-.053-.051-.082-.08-.595-.453-1.917-.41-2.492.326-.314.378-.677.87-.836 1.474-.041-.02-.077-.048-.11-.071-.412-.373.086-1.233-.086-1.497a.19.19 0 00-.061-.057c-.355-.175-.424.84-1.019.633l-.037-.028c-.078-.062-.094-.166-.143-.241a5.671 5.671 0 00-.518-.652c-.053-.052-.098-.109-.143-.151a3.734 3.734 0 00-.191-.194c-.07-.061-.131-.123-.196-.18a11.34 11.34 0 00-.42-.382c-.229-.226-.69.397-.979.732-.881 1.36-1.24 3.046-1.562 4.491-.029.128-.057.25-.094.364-.355 1.242-.963 2.087-1.101 2.508-.11.368-.14.963.11 1.185.07.066.155.109.269.1 0 .004-.012.018-.016.042-.033.127-.119.495-.208.647-.302.529-.551.623-.828 1.147-.278.534-.319.95-.33 1.464l-.07.704-.938.066V16.727l-.013-.01zm19.394 18.616l-2.154.264c.367-.996.902-2.154.518-2.961-.138-.538.098-.92.527-1.006.428-.076 2.01.742 1.496 1.285-.607.647-.534 1.563-.387 2.418zm-13.909-1.64c-.024-.084-.085-.292-.085-.306-.012-.345.281-.43-.045-1.072-.473-.945 1.105-1.606 1.427-2.574.009-.014.013-.028.021-.047.322-.916 1.06-1.606 1.525-1.903.229-.147.343-.076.404.09.082.207.273 1.34-.057 1.728l-.069.085c-.898 1.162-1.538 3.995-1.542 4a68.775 68.775 0 00-.706 2.531 1.38 1.38 0 01-.094.345l-.073.293-1.93.231.274-.68.033-.1c.032-.103.946-2.205.926-2.559l-.013-.056.004-.005zm-3.98 19.859c-.208.52-.498 1.327-.694 1.988-.032.113-.07.24-.106.373a7.094 7.094 0 00-.094.359c-.09.368-.163.755-.167 1.1h-.432V38.663c.546-.047.975-.09 1.162-.109.335.17 1.35.27 1.795.142.118-.038.363-.18.591-.364.722-.08 1.489-.175 2.305-.274-.539 1.365-1.261 3.226-.237 3.226.269-.024.306-.09.612-.369.31-.283 1.962.057 2.708.912.2.245-.387.58-.444.883-.098.477.35.345.514.534.191.288.253.736-.102.963-.265.09-.58 0-.608-.283-.02-.284-.016-.718-.314-.78-.302-.056-.139-.783-.534-.741-.147.043-1.098.954-1.171 1.8-.086.845.889 1.076.587 1.43-.542.628-.693-.194-1.293-.406-.599-.212-.64-1.445-.693-2.068-.702 1.2-2.712 8.358-3.186 9.879-.053.18-.118.35-.187.524l-.012-.01zm33.857 3.816H98.522c.106-.26.244-.662.391-1.106.037-.113.078-.231.119-.349.22-.666.452-1.36.644-1.78.294-.629.722-1.233 1.069-1.837.016-.029.032-.057.045-.085-.51.193-1.032.33-1.24.193h-.008c-.107-.08-.127-.231-.017-.496.681-1.416 1.799-.354 2.806-1.095.404-.284 1.053-.888 1.053-.888.212-.203.395-.369.616-.623l4.086-3.868c.188-.25 2.856-3.42 3.569-5.332.098-.269.155-.552.2-.836l.2-1.374a8.361 8.361 0 01.208-1.124c.934-.108 1.856-.222 2.765-.326 0 .02.009.038.009.052 0 .08.008.147 0 .19l.016 1.208.016.057a2.035 2.035 0 00.384.58c.269.241 1.276.307 1.717.133.122-.047.302-.25.465-.51.061-.09.13-.18.208-.246.228-.335.399-.713.526-1.119.053-.279.126-.515.163-.76 4.495-.53 8.158-.954 9.406-1.1.261-.029.412-.048.452-.053.673-.066.845-.533.845-.533l.301-.562v-.005-.01c.005-.009.013-.023.021-.047 0-.009.008-.019.012-.028 0-.01.008-.019.016-.033.013-.033.029-.066.049-.109.013-.023.021-.047.033-.07.008-.02.016-.038.024-.052.009-.02.017-.038.029-.057 0 0 .004-.01.008-.014.192-.42.498-1.086.734-1.61a.491.491 0 00.033-.076c.02-.047.045-.095.065-.142l.106-.236c.066-.142.127-.283.188-.42v26.493l.012.005zm0-28.831l-.624-.284c-.408-.179-.628.052-.628.052s-.196.6-.465 1.394c-.367 1.095-.873 2.55-1.211 3.362-.131.321-.241.538-.298.59-.314.265-1.065.236-1.065.236l-8.284.987h-.02c-.126-.26-.249-.462-.408-.86-.081-.183-.114-.66-.139-.722.51.109.502-.708.412-1.2a18.922 18.922 0 00-.664-2.398c-.429-1.233-1.057-2.678-1.917-3.707l-.2-.227c-.078-.07-.147-.146-.221-.212a2.205 2.205 0 00-.216-.199c-1.158-.954-1.411-1.095-2.223-1.497-.252-.165-.97-.496-1.248-.614-.269-.123-.032 1.186-1.354.576-.012 0-.024-.014-.045-.018-.155-1.063.779-.7 1.077-.841.204-.095.326-.18.453-.392l.387-1.403c.025-.363-.02-.718-.224-.973l-.037-.037c-.012-.014-.024-.029-.045-.043-.562.038-1.113.076-1.529.043-.061 0-.245-.01-.298-.01a4.412 4.412 0 01-.306-.047.325.325 0 01-.122-.057c-.216-.184-.257-.694.485-.528 1.644.387 2.57 0 2.598-.19a1.301 1.301 0 00-.22-.901c-.065-.09-.126-.08-.171-.1-.021-.004-.037-.019-.045-.047a3.492 3.492 0 00-.31-.585 5.24 5.24 0 00-.383-.539 5.834 5.834 0 00-.155-.174 1.115 1.115 0 00-.102-.1c-.013-.023-.037-.033-.045-.047l-.229-.123h20.051v11.82l-.012.015zm0-12.978H95.52V1.27h35.346v14.29z" fill="#A08C6E"/><path d="M129.736 33.36c.192-.42.498-1.087.734-1.611-.281.619-.558 1.223-.734 1.61z" fill="#A08C6E"/></svg>